<svg width="12" height="12" viewBox="0 0 12 12" fill="none" xmlns="http://www.w3.org/2000/svg">
<path fill-rule="evenodd" clip-rule="evenodd" d="M10.75 11.25L9.76998 11.25L9.76998 10.27L9.76998 9.3L9.76998 9.29L9.76998 8.32L9.76998 7.34L9.76998 6.36L8.79998 6.36L8.79998 7.34L7.81998 7.34L7.81998 8.32L6.83998 8.32L6.83998 9.3L5.86998 9.3L5.86998 10.27L4.88998 10.27L4.88998 9.3L4.88998 9.29L4.88998 8.32L4.88998 7.34L4.88998 6.36L3.90998 6.36L3.90998 7.34L2.93998 7.34L2.93998 8.32L1.95998 8.32L1.95998 9.3L0.979981 9.3L0.979981 10.27L-1.89878e-05 10.27L-1.8903e-05 9.3L-1.89021e-05 9.29L-1.88173e-05 8.32L-1.87317e-05 7.34L-1.8646e-05 6.36L-1.85612e-05 5.39L-1.85603e-05 5.38L-1.84755e-05 4.41L-1.83898e-05 3.43L-1.8305e-05 2.46L-1.83042e-05 2.45L-1.82194e-05 1.48L0.979981 1.48L0.979981 2.45L1.95998 2.45L1.95998 3.43L2.93998 3.43L2.93998 4.41L3.90998 4.41L3.90998 5.38L4.88998 5.38L4.88998 4.41L4.88998 3.43L4.88998 2.46L4.88998 2.45L4.88998 1.48L5.86998 1.48L5.86998 2.45L6.83998 2.45L6.83998 3.43L7.81998 3.43L7.81998 4.41L8.79998 4.41L8.79998 5.38L9.76998 5.38L9.76998 4.41L9.76998 3.43L9.76998 2.46L9.76998 2.45L9.76998 1.48L9.76998 0.5L10.75 0.5L11.73 0.5L11.73 1.48L11.73 2.45L11.73 2.46L11.73 3.43L11.73 4.41L11.73 5.38L11.73 5.39L11.73 6.36L11.73 7.34L11.73 8.32L11.73 9.29L11.73 9.3L11.73 10.27L11.73 11.25L10.75 11.25Z" fill="#222222"/>
</svg>
