<svg width="11" height="13" viewBox="0 0 11 13" fill="none" xmlns="http://www.w3.org/2000/svg">
<g clip-path="url(#clip0_1_717)">
<path d="M1.31297 3.57499C1.26794 3.19257 1.2241 2.81015 1.17078 2.35079H4.8406C4.88563 1.87994 4.92355 1.4757 4.96147 1.07031L4.94843 1.08065C5.3134 1.11166 5.67719 1.14266 6.09666 1.17826V2.30945C6.51495 2.32782 6.87992 2.3439 7.29466 2.36227V3.52102H6.11918V4.73029C5.65941 4.68895 5.266 4.65335 4.87141 4.61775L4.88445 4.63498V3.56925H1.30823L1.31297 3.57499Z" fill="#222222"/>
<path d="M6.0504 11.9193C5.68662 11.8883 5.32165 11.8573 4.91876 11.8229C4.90217 11.4519 4.88558 11.0982 4.86781 10.6928C4.46848 10.6722 4.0881 10.6527 3.6864 10.632V9.48357H4.87373V8.27774C5.3335 8.31449 5.72809 8.3455 6.1215 8.3765L6.10846 8.36043V9.43189H9.6906L9.68586 9.42615C9.73089 9.80972 9.77592 10.1921 9.82924 10.6504H6.15823C6.1132 11.1201 6.07528 11.5254 6.03737 11.932L6.0504 11.9216V11.9193Z" fill="#222222"/>
<path d="M1.3082 3.56925C1.27502 3.6726 1.2134 3.77596 1.2134 3.87932C1.20748 5.6272 1.20866 7.37508 1.2134 9.12181C1.2134 9.22861 1.26554 9.33541 1.29398 9.44106L1.30583 9.42958H0V3.51642C0.438436 3.53594 0.875687 3.55432 1.31294 3.57384L1.3082 3.5681V3.56925Z" fill="#222222"/>
<path d="M9.69184 9.43074C9.72502 9.32738 9.78545 9.22517 9.78545 9.12182C9.79138 7.37394 9.79138 5.62606 9.78545 3.87932C9.78545 3.77252 9.73213 3.66687 9.7025 3.56007L9.69065 3.57155C10.1149 3.55318 10.5391 3.53365 10.9989 3.51413V9.42729C10.564 9.42729 10.1255 9.42729 9.68591 9.42729L9.69065 9.43303L9.69184 9.43074Z" fill="#222222"/>
<path d="M4.87253 4.61777V5.8615H3.68994V4.76247C4.09164 4.72112 4.48979 4.67863 4.88675 4.63614C4.88675 4.63499 4.87253 4.61777 4.87253 4.61777Z" fill="#222222"/>
<path d="M6.12274 8.37536V7.13623H7.26741C7.28519 7.15805 7.30533 7.17183 7.3077 7.18791C7.47952 8.21803 7.45701 8.2433 6.38817 8.29383C6.29337 8.29842 6.20095 8.33402 6.10852 8.35699L6.12274 8.37422V8.37536Z" fill="#222222"/>
<path d="M4.96143 1.06917C4.55498 1.09673 4.14854 1.12429 3.6947 1.1553V0H4.85122C4.8844 0.37553 4.91521 0.72924 4.94839 1.0818L4.96261 1.07032L4.96143 1.06917Z" fill="#222222"/>
<path d="M6.03857 11.9297C6.44502 11.9021 6.85146 11.8746 7.3053 11.8436V13H6.14878C6.1156 12.6256 6.08479 12.2719 6.05279 11.9182C6.05161 11.9182 6.03857 11.9297 6.03857 11.9297Z" fill="#222222"/>
<path d="M9.70479 3.55893C9.35523 3.53826 9.00685 3.51759 8.61462 3.49462V2.3887H9.80314C9.76759 2.77342 9.73086 3.17077 9.69412 3.56927L9.70597 3.55893H9.70479Z" fill="#222222"/>
<path d="M1.29511 9.44108C1.64468 9.4606 1.99424 9.48013 2.38646 9.50195V10.6102H1.20032C1.23468 10.2266 1.27023 9.82809 1.30696 9.4296L1.29511 9.44108Z" fill="#222222"/>
</g>
<defs>
<clipPath id="clip0_1_717">
<rect width="11" height="13" fill="white"/>
</clipPath>
</defs>
</svg>
